<svg width="47" height="24" viewBox="0 0 47 24" fill="none" xmlns="http://www.w3.org/2000/svg">
<g clip-path="url(#clip0_23_6439)">
<path d="M29.0766 8.12584V9.98515C29.0766 10.3134 29.3232 10.5459 29.6766 10.5459C30.0301 10.5459 30.2766 10.3163 30.2766 9.98515V8.12584C31.4944 7.92538 32.2489 7.0422 32.2489 5.81331V4.21256C32.2489 3.88427 32.0023 3.65186 31.6489 3.65186C31.2954 3.65186 31.0489 3.88136 31.0489 4.21256V5.6942C31.0489 6.65872 30.5885 7.14679 29.6796 7.14679C28.7707 7.14679 28.3103 6.65872 28.3103 5.6942V4.21256C28.3103 3.88427 28.0638 3.65186 27.7103 3.65186C27.3569 3.65186 27.1104 3.88136 27.1104 4.21256V5.81331C27.1104 7.04511 27.8648 7.92828 29.0826 8.12584H29.0766Z" fill="white"/>
<path d="M33.8379 10.546C34.1973 10.546 34.429 10.3369 34.429 10.0144V5.8135C34.429 5.05525 34.8716 4.58461 35.5815 4.58461C36.2914 4.58461 36.7339 5.05525 36.7339 5.8135V10.0144C36.7339 10.3427 36.9537 10.546 37.3072 10.546C37.6606 10.546 37.8804 10.3427 37.8804 10.0144V5.8135C37.8804 5.05525 38.323 4.58461 39.0329 4.58461C39.7428 4.58461 40.1853 5.05525 40.1853 5.8135V10.0144C40.1853 10.3369 40.417 10.546 40.7764 10.546C41.1358 10.546 41.3675 10.3369 41.3675 10.0144V5.72054C41.3675 4.44807 40.4378 3.55908 39.1101 3.55908C38.3705 3.55908 37.6725 3.88446 37.3101 4.39577C36.9478 3.88446 36.2498 3.55908 35.5102 3.55908C34.1795 3.55908 33.2528 4.44807 33.2528 5.72054V10.0144C33.2528 10.3369 33.4845 10.546 33.8439 10.546H33.8379Z" fill="white"/>
<path d="M44.9555 3.74507H44.0733C43.7882 3.74507 43.5535 3.97458 43.5535 4.25348C43.5535 4.53237 43.7882 4.76188 44.0733 4.76188H44.9555C45.2347 4.76188 45.4604 4.98268 45.4604 5.25576V11.6646C45.4604 11.9377 45.2347 12.1585 44.9555 12.1585H18.2412C17.962 12.1585 17.7363 11.9377 17.7363 11.6646V5.25576C17.7363 4.98268 17.962 4.76188 18.2412 4.76188H20.5283C20.558 4.76769 20.5877 4.7706 20.6204 4.7706H24.4936C24.5648 4.7706 24.6124 4.78803 24.6302 4.81708C24.645 4.84904 24.6302 4.90424 24.5827 4.96525L20.2877 8.53862L20.261 8.56767C19.955 8.93372 19.8125 9.23005 19.8125 9.50023C19.8125 10.0784 20.2937 10.4502 21.0421 10.4502H25.6104C25.9312 10.4502 26.1628 10.2352 26.1628 9.93601C26.1628 9.63678 25.9312 9.42179 25.6104 9.42179H21.1966C21.1075 9.42179 21.0837 9.38984 21.0748 9.37531C21.054 9.33464 21.0748 9.26782 21.1283 9.19519L25.4767 5.56081L25.5034 5.53466C25.8034 5.18604 25.946 4.89843 25.946 4.62824C25.946 4.09078 25.4737 3.74216 24.746 3.74216H18.2472C17.3947 3.74216 16.7026 4.41907 16.7026 5.24995V11.6588C16.7026 12.4926 17.3947 13.1695 18.2472 13.1695H44.9614C45.8139 13.1695 46.506 12.4926 46.506 11.6588V5.24995C46.506 4.41617 45.8139 3.73926 44.9614 3.73926L44.9555 3.74507Z" fill="white"/>
<path d="M42.4486 4.76193C42.7357 4.76193 42.9684 4.53431 42.9684 4.25352C42.9684 3.97274 42.7357 3.74512 42.4486 3.74512C42.1616 3.74512 41.9288 3.97274 41.9288 4.25352C41.9288 4.53431 42.1616 4.76193 42.4486 4.76193Z" fill="white"/>
<path d="M4.44446 19.5637C4.44446 21.882 6.37214 23.7675 8.74239 23.7675C11.1126 23.7675 13.0403 21.882 13.0403 19.5637C13.0403 17.2453 11.1126 15.3599 8.74239 15.3599C6.37214 15.3599 4.44446 17.2453 4.44446 19.5637ZM5.48404 19.5637C5.48404 17.806 6.94539 16.3767 8.74239 16.3767C10.5394 16.3767 12.0007 17.806 12.0007 19.5637C12.0007 21.3213 10.5394 22.7506 8.74239 22.7506C6.94539 22.7506 5.48404 21.3213 5.48404 19.5637Z" fill="white"/>
<path d="M26.0143 21.0449C26.0143 22.5469 27.2647 23.77 28.7974 23.77C30.33 23.77 31.5835 22.5469 31.5835 21.0478C31.5835 19.5488 30.333 18.3257 28.8004 18.3257C27.2677 18.3257 26.0173 19.5488 26.0173 21.0478L26.0143 21.0449ZM27.0539 21.0449C27.0539 20.1037 27.838 19.3396 28.7974 19.3396C29.7568 19.3396 30.5409 20.1066 30.5409 21.0449C30.5409 21.9833 29.7568 22.7503 28.7944 22.7503C27.8321 22.7503 27.0509 21.9833 27.0509 21.042L27.0539 21.0449Z" fill="white"/>
<path d="M36.3744 21.0449C36.3744 22.5469 37.6249 23.77 39.1575 23.77C40.6902 23.77 41.9406 22.5469 41.9406 21.0478C41.9406 19.5488 40.6902 18.3257 39.1575 18.3257C37.6249 18.3257 36.3715 19.5488 36.3715 21.0478L36.3744 21.0449ZM37.414 21.0449C37.414 20.1037 38.1982 19.3396 39.1605 19.3396C40.1229 19.3396 40.904 20.1066 40.904 21.0449C40.904 21.9833 40.1199 22.7503 39.1605 22.7503C38.2011 22.7503 37.417 21.9833 37.417 21.042L37.414 21.0449Z" fill="white"/>
<path d="M8.74243 20.5166C9.28048 20.5166 9.71666 20.09 9.71666 19.5637C9.71666 19.0375 9.28048 18.6108 8.74243 18.6108C8.20437 18.6108 7.76819 19.0375 7.76819 19.5637C7.76819 20.09 8.20437 20.5166 8.74243 20.5166Z" fill="white"/>
<path d="M32.5012 20.4844H35.4536C35.7388 20.4844 35.9734 20.7139 35.9734 20.9928C35.9734 21.2717 35.7388 21.5012 35.4536 21.5012H32.5012C32.2161 21.5012 31.9814 21.2717 31.9814 20.9928C31.9814 20.7139 32.2161 20.4844 32.5012 20.4844Z" fill="white"/>
<path d="M17.7184 14.0757H45.9802C46.2653 14.0757 46.5 14.3052 46.5 14.5841V18.5439C46.5 18.8228 46.2653 19.0523 45.9802 19.0523H45.6564L45.6237 21.0016C45.6178 21.2776 45.3861 21.5013 45.1039 21.5013H42.8644C42.5793 21.5013 42.3446 21.2718 42.3446 20.9929C42.3446 20.714 42.5793 20.4845 42.8644 20.4845H44.5931L44.6257 18.5351C44.6317 18.2591 44.8634 18.0354 45.1455 18.0354H45.4604V15.0925H18.2382V18.1604H20.7243C20.8639 18.1604 20.9946 18.2127 21.0926 18.3085L23.3203 20.4874H25.0965C25.3816 20.4874 25.6162 20.7169 25.6162 20.9958C25.6162 21.2747 25.3816 21.5042 25.0965 21.5042H23.1064C22.9668 21.5042 22.8361 21.4519 22.7381 21.3561L20.5104 19.1772H17.7184C17.4333 19.1772 17.1986 18.9477 17.1986 18.6688V14.5841C17.1986 14.3052 17.4333 14.0757 17.7184 14.0757Z" fill="white"/>
<path d="M3.31578 10.6039H5.13356V4.5379C5.13356 2.16437 7.10877 0.232422 9.53545 0.232422H15.5888C15.8739 0.232422 16.1086 0.461931 16.1086 0.740829V19.5635C16.1086 19.8424 15.8739 20.0719 15.5888 20.0719H14.1096C13.8245 20.0719 13.5898 19.8424 13.5898 19.5635C13.5898 19.2846 13.8245 19.0551 14.1096 19.0551H15.069V1.24924H9.53545C7.68202 1.24924 6.17315 2.72507 6.17315 4.5379V11.1123C6.17315 11.3912 5.9385 11.6207 5.65336 11.6207H3.31578C2.3356 11.6207 1.53958 12.3993 1.53958 13.358V19.0551H3.37519C3.66033 19.0551 3.89498 19.2846 3.89498 19.5635C3.89498 19.8424 3.66033 20.0719 3.37519 20.0719H1.01979C0.734648 20.0719 0.5 19.8424 0.5 19.5635V13.358C0.5 11.8386 1.76235 10.6039 3.31578 10.6039Z" fill="white"/>
<path d="M12.8146 4.76144H8.28798C8.00284 4.76144 7.76819 4.53193 7.76819 4.25304C7.76819 3.97414 8.00284 3.74463 8.28798 3.74463H12.8146C13.0998 3.74463 13.3344 3.97414 13.3344 4.25304C13.3344 4.53193 13.0998 4.76144 12.8146 4.76144Z" fill="white"/>
<path d="M11.4868 13.4626C11.2017 13.4626 10.967 13.2331 10.967 12.9542C10.967 12.6753 11.2017 12.4458 11.4868 12.4458H12.8145C13.0997 12.4458 13.3343 12.6753 13.3343 12.9542C13.3343 13.2331 13.0997 13.4626 12.8145 13.4626H11.4868Z" fill="white"/>
</g>
<defs>
<clipPath id="clip0_23_6439">
<rect width="46" height="23.5349" fill="white" transform="translate(0.5 0.232422)"/>
</clipPath>
</defs>
</svg>
