<svg width="24" height="24" viewBox="0 0 24 24" fill="none" xmlns="http://www.w3.org/2000/svg">
<g clip-path="url(#clip0_100_862)">
<path d="M24.0073 19.2505C24.0073 21.9291 21.5532 23.9995 18.4653 23.9995H5.60617C2.51885 23.9995 0.0157471 21.9291 0.0157471 19.2505V4.82161C0.0157471 2.14303 2.51885 -0.0283203 5.60617 -0.0283203H18.4653C21.5532 -0.0283203 24.0073 2.14303 24.0073 4.82161V19.2505Z" fill="#F9E000"/>
<path d="M4.16907 7.89663C4.16907 7.58457 4.37695 7.19989 4.644 7.04216L11.4643 3.01039C11.7313 2.85266 12.1663 2.85266 12.4333 3.01039L19.2457 7.04216C19.5127 7.19989 19.7184 7.58457 19.7184 7.89663V15.9738C19.7184 16.2858 19.5116 16.6705 19.2446 16.8283L12.4248 20.86C12.1578 21.0178 11.7234 21.0178 11.4558 20.86L4.64287 16.8283C4.37583 16.6705 4.16907 16.2858 4.16907 15.9738V7.89663Z" fill="#1977D1"/>
<path d="M12.9578 11.5744V13.2607C12.9578 13.2607 13.0011 13.5625 13.3679 13.2692L16.9803 10.9282C16.9803 10.9282 17.1121 10.8777 17.1121 10.5929C17.1121 10.5929 17.1194 10.4306 16.9921 10.3018C16.8642 10.173 13.3048 7.91941 13.3048 7.91941C13.3048 7.91941 13.1273 7.86891 13.1273 8.13218V9.92905H9.61297C9.61297 9.92905 8.78931 9.88253 8.78931 10.6547V14.3347L9.82987 15.1291C9.82987 15.1291 10.2541 15.4479 10.2541 15.0678V11.8576C10.2541 11.8576 10.2907 11.575 10.7516 11.575H13.1273" fill="#F7E200"/>
</g>
<defs>
<clipPath id="clip0_100_862">
<rect width="24" height="24" fill="white"/>
</clipPath>
</defs>
</svg>
