<svg width="10" height="11" viewBox="0 0 10 11" fill="none" xmlns="http://www.w3.org/2000/svg">
<g clip-path="url(#clip0_100_2233)">
<path fill-rule="evenodd" clip-rule="evenodd" d="M5 10.5C7.76142 10.5 10 8.26142 10 5.5C10 2.73858 7.76142 0.5 5 0.5C2.23858 0.5 0 2.73858 0 5.5C0 8.26142 2.23858 10.5 5 10.5ZM3.53033 2.96967C3.23744 2.67678 2.76256 2.67678 2.46967 2.96967C2.17678 3.26256 2.17678 3.73744 2.46967 4.03033L3.93934 5.5L2.46967 6.96967C2.17678 7.26256 2.17678 7.73744 2.46967 8.03033C2.76256 8.32322 3.23744 8.32322 3.53033 8.03033L5 6.56066L6.46967 8.03033C6.76256 8.32322 7.23744 8.32322 7.53033 8.03033C7.82322 7.73744 7.82322 7.26256 7.53033 6.96967L6.06066 5.5L7.53033 4.03033C7.82322 3.73744 7.82322 3.26256 7.53033 2.96967C7.23744 2.67678 6.76256 2.67678 6.46967 2.96967L5 4.43934L3.53033 2.96967Z" fill="#408CFF"/>
</g>
<defs>
<clipPath id="clip0_100_2233">
<rect width="10" height="10" fill="white" transform="translate(0 0.5)"/>
</clipPath>
</defs>
</svg>
