<svg width="36" height="36" viewBox="0 0 36 36" fill="none" xmlns="http://www.w3.org/2000/svg">
<g opacity="0.4">
<path d="M3 5C3 3.34315 4.34315 2 6 2V2C7.65685 2 9 3.34315 9 5V12H3V5Z" stroke="black" stroke-width="2"/>
<circle cx="29.5" cy="29.5" r="2.5" fill="#AFAFAF"/>
<path fill-rule="evenodd" clip-rule="evenodd" d="M7.99999 1H6.13147L7.16794 2.5547L7.49614 3.047C7.82467 3.5398 7.99999 4.11883 7.99999 4.7111V28V28.4142L8.29288 28.7071L11.2929 31.7071L12 32.4142L12.7071 31.7071L15 29.4142L17.2929 31.7071L18 32.4142L18.7071 31.7071L21 29.4142L23.2929 31.7071L24 32.4142L24.7071 31.7071L25.2987 31.1155C25.1057 30.6141 25 30.0694 25 29.5C25 29.1444 25.0412 28.7984 25.1192 28.4666L24 29.5858L21.7071 27.2929L21 26.5858L20.2929 27.2929L18 29.5858L15.7071 27.2929L15 26.5858L14.2929 27.2929L12 29.5858L9.99999 27.5858V4.7111C9.99999 4.12442 9.89678 3.54555 9.69809 3H27C28.6568 3 30 4.34315 30 6V25.0275C30.7344 25.1087 31.4156 25.3666 32 25.7578V6C32 3.23858 29.7614 1 27 1H7.99999Z" fill="black"/>
<rect x="13" y="8" width="14" height="2" rx="1" fill="#AFAFAF"/>
<rect x="13" y="13" width="14" height="2" rx="1" fill="#AFAFAF"/>
</g>
</svg>
