<svg width="36" height="36" viewBox="0 0 36 36" fill="none" xmlns="http://www.w3.org/2000/svg">
<g opacity="0.4">
<path d="M29.4385 24.4103L28.7242 23.7104C28.4832 23.9563 28.3857 24.3089 28.4661 24.6436L29.4385 24.4103ZM23.6921 28.0313L24.229 27.1877C23.969 27.0222 23.6473 26.9859 23.3569 27.0892L23.6921 28.0313ZM29.4136 31.6723L29.9505 30.8286L29.9505 30.8286L29.4136 31.6723ZM30.9229 30.5953L29.9505 30.8286L30.9229 30.5953ZM32 16C32 18.9172 30.7833 21.609 28.7242 23.7104L30.1527 25.1102C32.5365 22.6774 34 19.4973 34 16H32ZM18 4C25.8711 4 32 9.50214 32 16H34C34 8.13846 26.6974 2 18 2V4ZM4 16C4 9.50214 10.1289 4 18 4V2C9.30258 2 2 8.13846 2 16H4ZM18 28C10.1289 28 4 22.4979 4 16H2C2 23.8615 9.30258 30 18 30V28ZM23.3569 27.0892C21.7095 27.6752 19.9008 28 18 28V30C20.1289 30 22.1643 29.6362 24.0273 28.9735L23.3569 27.0892ZM29.9505 30.8286L24.229 27.1877L23.1552 28.875L28.8767 32.516L29.9505 30.8286ZM29.9505 30.8286V30.8286L28.8767 32.5159C30.3937 33.4813 32.3149 32.1104 31.8952 30.3619L29.9505 30.8286ZM28.4661 24.6436L29.9505 30.8286L31.8952 30.3619L30.4109 24.1769L28.4661 24.6436Z" fill="black"/>
<path d="M17.1359 10.4836C17.5216 9.82132 18.4784 9.82132 18.8641 10.4836L20.0412 12.5045C20.1825 12.7471 20.4193 12.9191 20.6937 12.9785L22.9794 13.4735C23.7284 13.6357 24.0241 14.5456 23.5134 15.1172L21.9552 16.8611C21.7681 17.0705 21.6777 17.3488 21.706 17.6281L21.9415 19.955C22.0188 20.7175 21.2447 21.2798 20.5434 20.9708L18.4032 20.0277C18.1463 19.9145 17.8537 19.9145 17.5968 20.0277L15.4566 20.9708C14.7553 21.2798 13.9812 20.7175 14.0585 19.955L14.294 17.6281C14.3223 17.3488 14.2319 17.0705 14.0448 16.8611L12.4866 15.1172C11.9759 14.5456 12.2716 13.6357 13.0206 13.4735L15.3063 12.9785C15.5807 12.9191 15.8175 12.7471 15.9588 12.5045L17.1359 10.4836Z" fill="#AFAFAF"/>
</g>
</svg>
