<svg width="36" height="36" viewBox="0 0 36 36" fill="none" xmlns="http://www.w3.org/2000/svg">
<rect x="7" y="14" width="4" height="4" rx="1" fill="#AEB5BF"/>
<rect x="7" y="21" width="4" height="4" rx="1" fill="black"/>
<rect x="15" y="14" width="4" height="4" rx="1" fill="black"/>
<rect x="15" y="21" width="4" height="4" rx="1" fill="#AEB5BF"/>
<rect x="23" y="14" width="4" height="4" rx="1" fill="#AEB5BF"/>
<rect x="23" y="21" width="4" height="4" rx="1" fill="black"/>
<rect x="7" y="2" width="2" height="8" rx="1" fill="black"/>
<rect x="25" y="2" width="2" height="8" rx="1" fill="black"/>
<path fill-rule="evenodd" clip-rule="evenodd" d="M7 5C4.23858 5 2 7.23858 2 10V26C2 28.7614 4.23858 31 7 31H25.2561C25.0902 30.5308 25 30.026 25 29.5C25 29.331 25.0093 29.1642 25.0275 29H7C5.34315 29 4 27.6569 4 26V10C4 8.34315 5.34315 7 7 7H27C28.6569 7 30 8.34315 30 10V25.0275C30.7344 25.1087 31.4156 25.3666 32 25.7578V10C32 7.23858 29.7614 5 27 5H7Z" fill="black"/>
<circle cx="29.5" cy="29.5" r="2.5" fill="#408CFF"/>
</svg>
