<svg width="20" height="20" viewBox="0 0 20 20" fill="none" xmlns="http://www.w3.org/2000/svg">
<path fill-rule="evenodd" clip-rule="evenodd" d="M10 18C14.4183 18 18 14.4183 18 10C18 5.58172 14.4183 2 10 2C5.58172 2 2 5.58172 2 10C2 14.4183 5.58172 18 10 18ZM7.70711 6.29292C7.42111 6.00692 6.99099 5.92137 6.61732 6.07615C6.24364 6.23093 6 6.59557 6 7.00003V13C6 13.5523 6.44772 14 7 14C7.55228 14 8 13.5523 8 13V9.41424L12.2929 13.7071C12.5789 13.9931 13.009 14.0787 13.3827 13.9239C13.7564 13.7691 14 13.4045 14 13V7.00003C14 6.44774 13.5523 6.00003 13 6.00003C12.4477 6.00003 12 6.44774 12 7.00003V10.5858L7.70711 6.29292Z" fill="#408CFF"/>
</svg>
