<svg width="24" height="24" viewBox="0 0 24 24" fill="none" xmlns="http://www.w3.org/2000/svg">
<path fill-rule="evenodd" clip-rule="evenodd" d="M12 22C17.5228 22 22 17.5228 22 12C22 6.47715 17.5228 2 12 2C6.47715 2 2 6.47715 2 12C2 17.5228 6.47715 22 12 22ZM8.29047 10.1389C8.09682 10.713 8 11.3009 8 11.9028C8 12.5324 8.10489 13.1528 8.31467 13.7639C8.52446 14.3657 8.81896 14.912 9.19818 15.4028C9.58548 15.8843 10.0414 16.2731 10.5658 16.5694C11.0983 16.8565 11.6833 17 12.3207 17C12.8129 17 13.3091 16.912 13.8094 16.7361C14.3096 16.5509 14.7574 16.287 15.1528 15.9444C15.5482 15.6019 15.8306 15.1898 16 14.7083L14.0756 13.3889C13.9788 13.6852 13.8376 13.9213 13.652 14.0972C13.4665 14.2731 13.2607 14.4028 13.0348 14.4861C12.8089 14.5602 12.587 14.5972 12.3691 14.5972C12.0625 14.5972 11.7842 14.5278 11.534 14.3889C11.292 14.25 11.0862 14.0602 10.9168 13.8194C10.7474 13.5694 10.6183 13.287 10.5295 12.9722C10.4407 12.6574 10.3964 12.3287 10.3964 11.9861C10.3964 11.6806 10.4327 11.375 10.5053 11.0694C10.586 10.7639 10.703 10.4861 10.8563 10.2361C11.0176 9.98611 11.2194 9.78704 11.4614 9.63889C11.7115 9.48148 12.0061 9.40278 12.3449 9.40278C12.5628 9.40278 12.7847 9.43982 13.0106 9.51389C13.2446 9.5787 13.4584 9.69907 13.652 9.875C13.8538 10.0509 14.0071 10.3009 14.112 10.625L15.9153 9.15278C15.6167 8.50463 15.1609 7.98611 14.5477 7.59722C13.9344 7.19907 13.2163 7 12.3933 7C11.7075 7 11.0903 7.14352 10.5416 7.43056C10.001 7.70833 9.5411 8.08333 9.16188 8.55556C8.78265 9.02778 8.49218 9.55556 8.29047 10.1389Z" fill="#408CFF"/>
</svg>
