<svg width="40" height="40" viewBox="0 0 40 40" fill="none" xmlns="http://www.w3.org/2000/svg">
<rect width="40" height="40" rx="20" fill="#F3F5F8"/>
<mask id="mask0_23_6535" style="mask-type:alpha" maskUnits="userSpaceOnUse" x="8" y="8" width="24" height="24">
<rect x="8" y="8" width="24" height="24" fill="#D9D9D9"/>
</mask>
<g mask="url(#mask0_23_6535)">
<path d="M13 30C12.45 30 11.9792 29.8042 11.5875 29.4125C11.1958 29.0208 11 28.55 11 28V14C11 13.45 11.1958 12.9792 11.5875 12.5875C11.9792 12.1958 12.45 12 13 12H16L20 8L24 12H27C27.55 12 28.0208 12.1958 28.4125 12.5875C28.8042 12.9792 29 13.45 29 14V28C29 28.55 28.8042 29.0208 28.4125 29.4125C28.0208 29.8042 27.55 30 27 30H13ZM13 28H27V14H13V28ZM18.1 12H21.9L20 10.1L18.1 12Z" fill="#333333"/>
</g>
<path d="M26 26H14L17 22L19.25 25L22.25 21L26 26Z" fill="#408CFF"/>
</svg>
