<svg width="20" height="21" viewBox="0 0 20 21" fill="none" xmlns="http://www.w3.org/2000/svg">
<path fill-rule="evenodd" clip-rule="evenodd" d="M10.0001 18.8332C14.6025 18.8332 18.3334 15.1022 18.3334 10.4998C18.3334 5.89746 14.6025 2.1665 10.0001 2.1665C5.39771 2.1665 1.66675 5.89746 1.66675 10.4998C1.66675 15.1022 5.39771 18.8332 10.0001 18.8332ZM6.90881 8.94899C6.74743 9.42739 6.66675 9.91736 6.66675 10.4189C6.66675 10.9436 6.75416 11.4606 6.92898 11.9698C7.1038 12.4714 7.34922 12.9266 7.66524 13.3356C7.98798 13.7368 8.36787 14.0609 8.80492 14.3078C9.24869 14.547 9.73617 14.6666 10.2674 14.6666C10.6775 14.6666 11.091 14.5933 11.5079 14.4467C11.9248 14.2924 12.2979 14.0724 12.6274 13.787C12.9569 13.5015 13.1922 13.1581 13.3334 12.7569L11.7298 11.6573C11.6491 11.9042 11.5314 12.101 11.3768 12.2476C11.2221 12.3942 11.0507 12.5022 10.8624 12.5717C10.6741 12.6334 10.4892 12.6643 10.3077 12.6643C10.0522 12.6643 9.82022 12.6064 9.61178 12.4907C9.41007 12.3749 9.23861 12.2167 9.09741 12.0161C8.95621 11.8078 8.84863 11.5724 8.77467 11.3101C8.7007 11.0478 8.66372 10.7738 8.66372 10.4883C8.66372 10.2337 8.69398 9.97908 8.75449 9.72446C8.82173 9.46983 8.91923 9.23834 9.04698 9.03001C9.18146 8.82168 9.34955 8.65578 9.55127 8.53233C9.7597 8.40115 10.0051 8.33557 10.2875 8.33557C10.4691 8.33557 10.654 8.36643 10.8422 8.42816C11.0372 8.48217 11.2154 8.58248 11.3768 8.72909C11.5449 8.87569 11.6726 9.08402 11.76 9.35409L13.2628 8.12723C13.014 7.58711 12.6341 7.15501 12.1231 6.83094C11.6121 6.49915 11.0137 6.33325 10.3279 6.33325C9.75634 6.33325 9.24197 6.45285 8.78475 6.69205C8.33426 6.92353 7.951 7.23603 7.63498 7.62955C7.31896 8.02307 7.0769 8.46288 6.90881 8.94899Z" fill="white"/>
<path fill-rule="evenodd" clip-rule="evenodd" d="M10.0001 18.8332C14.6025 18.8332 18.3334 15.1022 18.3334 10.4998C18.3334 5.89746 14.6025 2.1665 10.0001 2.1665C5.39771 2.1665 1.66675 5.89746 1.66675 10.4998C1.66675 15.1022 5.39771 18.8332 10.0001 18.8332ZM6.90881 8.94899C6.74743 9.42739 6.66675 9.91736 6.66675 10.4189C6.66675 10.9436 6.75416 11.4606 6.92898 11.9698C7.1038 12.4714 7.34922 12.9266 7.66524 13.3356C7.98798 13.7368 8.36787 14.0609 8.80492 14.3078C9.24869 14.547 9.73617 14.6666 10.2674 14.6666C10.6775 14.6666 11.091 14.5933 11.5079 14.4467C11.9248 14.2924 12.2979 14.0724 12.6274 13.787C12.9569 13.5015 13.1922 13.1581 13.3334 12.7569L11.7298 11.6573C11.6491 11.9042 11.5314 12.101 11.3768 12.2476C11.2221 12.3942 11.0507 12.5022 10.8624 12.5717C10.6741 12.6334 10.4892 12.6643 10.3077 12.6643C10.0522 12.6643 9.82022 12.6064 9.61178 12.4907C9.41007 12.3749 9.23861 12.2167 9.09741 12.0161C8.95621 11.8078 8.84863 11.5724 8.77467 11.3101C8.7007 11.0478 8.66372 10.7738 8.66372 10.4883C8.66372 10.2337 8.69398 9.97908 8.75449 9.72446C8.82173 9.46983 8.91923 9.23834 9.04698 9.03001C9.18146 8.82168 9.34955 8.65578 9.55127 8.53233C9.7597 8.40115 10.0051 8.33557 10.2875 8.33557C10.4691 8.33557 10.654 8.36643 10.8422 8.42816C11.0372 8.48217 11.2154 8.58248 11.3768 8.72909C11.5449 8.87569 11.6726 9.08402 11.76 9.35409L13.2628 8.12723C13.014 7.58711 12.6341 7.15501 12.1231 6.83094C11.6121 6.49915 11.0137 6.33325 10.3279 6.33325C9.75634 6.33325 9.24197 6.45285 8.78475 6.69205C8.33426 6.92353 7.951 7.23603 7.63498 7.62955C7.31896 8.02307 7.0769 8.46288 6.90881 8.94899Z" fill="white" fill-opacity="0.5"/>
</svg>
