<svg width="20" height="20" viewBox="0 0 20 20" fill="none" xmlns="http://www.w3.org/2000/svg">
<path d="M5 12V9C5 6.23858 7.23858 4 10 4V4C12.7614 4 15 6.23858 15 9V12" stroke="#333333" stroke-width="2" stroke-linecap="round" stroke-linejoin="round"/>
<path d="M3 9C3 8.44772 3.44772 8 4 8H5V12H4C3.44772 12 3 11.5523 3 11V9Z" fill="#333333" stroke="#333333" stroke-width="2"/>
<path d="M17 9C17 8.44772 16.5523 8 16 8H15V12H16C16.5523 12 17 11.5523 17 11V9Z" fill="#333333" stroke="#333333" stroke-width="2"/>
<path d="M5 12V12C5 14.2091 6.79086 16 9 16H11" stroke="#333333" stroke-width="2" stroke-linecap="round" stroke-linejoin="round"/>
</svg>
