<svg width="40" height="40" viewBox="0 0 40 40" fill="none" xmlns="http://www.w3.org/2000/svg">
<rect width="40" height="40" rx="20" fill="#F3F5F8"/>
<mask id="mask0_23_6520" style="mask-type:alpha" maskUnits="userSpaceOnUse" x="8" y="8" width="24" height="24">
<rect x="8" y="8" width="24" height="24" fill="#D9D9D9"/>
</mask>
<g mask="url(#mask0_23_6520)">
<path d="M12 29C11.45 29 10.9792 28.8042 10.5875 28.4125C10.1958 28.0208 10 27.55 10 27V15C10 14.45 10.1958 13.9792 10.5875 13.5875C10.9792 13.1958 11.45 13 12 13H15.15L17 11H23L24.85 13H28C28.55 13 29.0208 13.1958 29.4125 13.5875C29.8042 13.9792 30 14.45 30 15V27C30 27.55 29.8042 28.0208 29.4125 28.4125C29.0208 28.8042 28.55 29 28 29H12ZM12 27H28V15H23.95L22.125 13H17.875L16.05 15H12V27Z" fill="#333333"/>
</g>
<circle cx="20" cy="21" r="3" stroke="#408CFF" stroke-width="2"/>
</svg>
