<svg width="16" height="16" viewBox="0 0 16 16" fill="none" xmlns="http://www.w3.org/2000/svg">
<path fill-rule="evenodd" clip-rule="evenodd" d="M7.99992 14.6668C11.6818 14.6668 14.6666 11.6821 14.6666 8.00016C14.6666 4.31826 11.6818 1.3335 7.99992 1.3335C4.31802 1.3335 1.33325 4.31826 1.33325 8.00016C1.33325 11.6821 4.31802 14.6668 7.99992 14.6668ZM5.5269 6.75949C5.3978 7.1422 5.33325 7.53418 5.33325 7.93541C5.33325 8.35517 5.40318 8.76875 5.54304 9.17615C5.68289 9.57739 5.87923 9.94159 6.13204 10.2687C6.39024 10.5897 6.69415 10.849 7.04379 11.0465C7.39881 11.2379 7.78879 11.3336 8.21374 11.3336C8.54186 11.3336 8.87267 11.2749 9.20617 11.1576C9.53967 11.0342 9.83821 10.8583 10.1018 10.6299C10.3654 10.4015 10.5536 10.1268 10.6666 9.80578L9.38368 8.92615C9.31913 9.12368 9.225 9.28109 9.10128 9.39838C8.97756 9.51566 8.8404 9.60208 8.68978 9.65763C8.53917 9.70702 8.39124 9.73171 8.24601 9.73171C8.04161 9.73171 7.85603 9.68541 7.68928 9.59282C7.52791 9.50023 7.39074 9.37368 7.27778 9.21319C7.16482 9.04652 7.07876 8.85825 7.01959 8.64838C6.96042 8.4385 6.93083 8.21936 6.93083 7.99097C6.93083 7.78727 6.95504 7.58356 7.00345 7.37986C7.05724 7.17615 7.13524 6.99097 7.23744 6.8243C7.34502 6.65763 7.4795 6.52492 7.64087 6.42615C7.80762 6.32122 8.00395 6.26875 8.22987 6.26875C8.37511 6.26875 8.52303 6.29344 8.67365 6.34282C8.82964 6.38603 8.97218 6.46628 9.10128 6.58356C9.23576 6.70085 9.33796 6.86751 9.40789 7.08356L10.6101 6.10208C10.4111 5.66998 10.1072 5.3243 9.69836 5.06504C9.28955 4.79961 8.81081 4.66689 8.26215 4.66689C7.80493 4.66689 7.39343 4.76257 7.02765 4.95393C6.66726 5.13912 6.36065 5.38912 6.10784 5.70393C5.85502 6.01875 5.66137 6.3706 5.5269 6.75949Z" fill="white"/>
<path fill-rule="evenodd" clip-rule="evenodd" d="M7.99992 14.6668C11.6818 14.6668 14.6666 11.6821 14.6666 8.00016C14.6666 4.31826 11.6818 1.3335 7.99992 1.3335C4.31802 1.3335 1.33325 4.31826 1.33325 8.00016C1.33325 11.6821 4.31802 14.6668 7.99992 14.6668ZM5.5269 6.75949C5.3978 7.1422 5.33325 7.53418 5.33325 7.93541C5.33325 8.35517 5.40318 8.76875 5.54304 9.17615C5.68289 9.57739 5.87923 9.94159 6.13204 10.2687C6.39024 10.5897 6.69415 10.849 7.04379 11.0465C7.39881 11.2379 7.78879 11.3336 8.21374 11.3336C8.54186 11.3336 8.87267 11.2749 9.20617 11.1576C9.53967 11.0342 9.83821 10.8583 10.1018 10.6299C10.3654 10.4015 10.5536 10.1268 10.6666 9.80578L9.38368 8.92615C9.31913 9.12368 9.225 9.28109 9.10128 9.39838C8.97756 9.51566 8.8404 9.60208 8.68978 9.65763C8.53917 9.70702 8.39124 9.73171 8.24601 9.73171C8.04161 9.73171 7.85603 9.68541 7.68928 9.59282C7.52791 9.50023 7.39074 9.37368 7.27778 9.21319C7.16482 9.04652 7.07876 8.85825 7.01959 8.64838C6.96042 8.4385 6.93083 8.21936 6.93083 7.99097C6.93083 7.78727 6.95504 7.58356 7.00345 7.37986C7.05724 7.17615 7.13524 6.99097 7.23744 6.8243C7.34502 6.65763 7.4795 6.52492 7.64087 6.42615C7.80762 6.32122 8.00395 6.26875 8.22987 6.26875C8.37511 6.26875 8.52303 6.29344 8.67365 6.34282C8.82964 6.38603 8.97218 6.46628 9.10128 6.58356C9.23576 6.70085 9.33796 6.86751 9.40789 7.08356L10.6101 6.10208C10.4111 5.66998 10.1072 5.3243 9.69836 5.06504C9.28955 4.79961 8.81081 4.66689 8.26215 4.66689C7.80493 4.66689 7.39343 4.76257 7.02765 4.95393C6.66726 5.13912 6.36065 5.38912 6.10784 5.70393C5.85502 6.01875 5.66137 6.3706 5.5269 6.75949Z" fill="white" fill-opacity="0.5"/>
</svg>
