<svg width="12" height="14" viewBox="0 0 12 14" fill="none" xmlns="http://www.w3.org/2000/svg">
<path fill-rule="evenodd" clip-rule="evenodd" d="M6.17072 11.5C6.06016 11.1872 6.00001 10.8506 6.00001 10.5C6.00001 10.1494 6.06016 9.81278 6.17072 9.5H1.00001C0.447724 9.5 9.53674e-06 9.94772 9.53674e-06 10.5C9.53674e-06 11.0523 0.447724 11.5 1.00001 11.5L6.17072 11.5Z" fill="#333333"/>
<circle cx="3" cy="3" r="2" transform="matrix(-1 0 0 1 12 7.5)" stroke="#333333" stroke-width="2"/>
<path fill-rule="evenodd" clip-rule="evenodd" d="M5.82927 4.5C5.93982 4.18722 5.99998 3.85064 5.99998 3.5C5.99998 3.14936 5.93982 2.81278 5.82927 2.5H11C11.5523 2.5 12 2.94772 12 3.5C12 4.05228 11.5523 4.5 11 4.5H5.82927Z" fill="#333333"/>
<circle cx="2.99998" cy="3.5" r="2" stroke="#333333" stroke-width="2"/>
</svg>
