<svg width="24" height="24" viewBox="0 0 24 24" fill="none" xmlns="http://www.w3.org/2000/svg">
<mask id="path-1-inside-1_23_6099" fill="white">
<path fill-rule="evenodd" clip-rule="evenodd" d="M20.0389 17.9489C21.2712 16.2864 22 14.2283 22 12C22 6.47715 17.5228 2 12 2C6.47715 2 2 6.47715 2 12C2 14.2283 2.72884 16.2864 3.96112 17.9489C5.44347 15.0132 8.48663 13 12 13C15.5134 13 18.5565 15.0132 20.0389 17.9489ZM12 8C12.5523 8 13 8.44772 13 9C13 9.55228 12.5523 10 12 10C11.4477 10 11 9.55228 11 9C11 8.44772 11.4477 8 12 8ZM12 6C13.6569 6 15 7.34315 15 9C15 10.6569 13.6569 12 12 12C10.3431 12 9 10.6569 9 9C9 7.34315 10.3431 6 12 6ZM6.43727 17.7496C7.87858 19.1448 9.83927 20 12 20C14.1607 20 16.1214 19.1448 17.5627 17.7496C16.2818 16.0758 14.2653 15 12 15C9.73467 15 7.71817 16.0758 6.43727 17.7496Z"/>
</mask>
<path fill-rule="evenodd" clip-rule="evenodd" d="M20.0389 17.9489C21.2712 16.2864 22 14.2283 22 12C22 6.47715 17.5228 2 12 2C6.47715 2 2 6.47715 2 12C2 14.2283 2.72884 16.2864 3.96112 17.9489C5.44347 15.0132 8.48663 13 12 13C15.5134 13 18.5565 15.0132 20.0389 17.9489ZM12 8C12.5523 8 13 8.44772 13 9C13 9.55228 12.5523 10 12 10C11.4477 10 11 9.55228 11 9C11 8.44772 11.4477 8 12 8ZM12 6C13.6569 6 15 7.34315 15 9C15 10.6569 13.6569 12 12 12C10.3431 12 9 10.6569 9 9C9 7.34315 10.3431 6 12 6ZM6.43727 17.7496C7.87858 19.1448 9.83927 20 12 20C14.1607 20 16.1214 19.1448 17.5627 17.7496C16.2818 16.0758 14.2653 15 12 15C9.73467 15 7.71817 16.0758 6.43727 17.7496Z" fill="#408CFF"/>
<path d="M20.0389 17.9489L18.2536 18.8504L19.7149 21.7445L21.6456 19.1399L20.0389 17.9489ZM3.96112 17.9489L2.35439 19.1398L4.28507 21.7445L5.74644 18.8503L3.96112 17.9489ZM6.43727 17.7496L4.84897 16.5342L3.76685 17.9483L5.04626 19.1867L6.43727 17.7496ZM17.5627 17.7496L18.9537 19.1867L20.2331 17.9483L19.151 16.5342L17.5627 17.7496ZM20 12C20 13.785 19.4177 15.4282 18.4321 16.7579L21.6456 19.1399C23.1246 17.1446 24 14.6716 24 12H20ZM12 4C16.4183 4 20 7.58172 20 12H24C24 5.37258 18.6274 0 12 0V4ZM4 12C4 7.58172 7.58172 4 12 4V0C5.37258 0 0 5.37258 0 12H4ZM5.56786 16.7579C4.58225 15.4282 4 13.785 4 12H0C0 14.6716 0.875421 17.1446 2.35439 19.1398L5.56786 16.7579ZM5.74644 18.8503C6.90185 16.5621 9.27028 15 12 15V11C7.70298 11 3.98508 13.4642 2.17581 17.0474L5.74644 18.8503ZM12 15C14.7297 15 17.0981 16.5621 18.2536 18.8504L21.8242 17.0474C20.0149 13.4642 16.297 11 12 11V15ZM15 9C15 7.34315 13.6569 6 12 6V10C11.4477 10 11 9.55229 11 9H15ZM12 12C13.6569 12 15 10.6569 15 9H11C11 8.44771 11.4477 8 12 8V12ZM9 9C9 10.6569 10.3431 12 12 12V8C12.5523 8 13 8.44771 13 9H9ZM12 6C10.3431 6 9 7.34315 9 9H13C13 9.55229 12.5523 10 12 10V6ZM17 9C17 6.23858 14.7614 4 12 4V8C12.5523 8 13 8.44772 13 9H17ZM12 14C14.7614 14 17 11.7614 17 9H13C13 9.55229 12.5523 10 12 10V14ZM7 9C7 11.7614 9.23858 14 12 14V10C11.4477 10 11 9.55229 11 9H7ZM12 4C9.23858 4 7 6.23858 7 9H11C11 8.44772 11.4477 8 12 8V4ZM12 18C10.3782 18 8.91098 17.3606 7.82828 16.3126L5.04626 19.1867C6.84617 20.9289 9.30037 22 12 22V18ZM16.1717 16.3126C15.089 17.3606 13.6218 18 12 18V22C14.6996 22 17.1538 20.9289 18.9537 19.1867L16.1717 16.3126ZM12 17C13.6172 17 15.0562 17.7652 15.9744 18.9651L19.151 16.5342C17.5074 14.3864 14.9134 13 12 13V17ZM8.02557 18.9651C8.94376 17.7652 10.3828 17 12 17V13C9.08656 13 6.49258 14.3864 4.84897 16.5342L8.02557 18.9651Z" fill="#408CFF" mask="url(#path-1-inside-1_23_6099)"/>
</svg>
