<svg width="106" height="61" viewBox="0 0 106 61" fill="none" xmlns="http://www.w3.org/2000/svg">
<ellipse cx="53" cy="53.5" rx="53" ry="7.5" fill="#E2EEFF"/>
<path d="M65.115 17.3885V21.4844C65.115 22.2076 65.6509 22.7196 66.4192 22.7196C67.1875 22.7196 67.7234 22.214 67.7234 21.4844V17.3885C70.3704 16.9469 72.0103 15.0013 72.0103 12.2942V8.76784C72.0103 8.04465 71.4744 7.53266 70.7061 7.53266C69.9378 7.53266 69.402 8.03825 69.402 8.76784V12.0318C69.402 14.1565 68.4013 15.2317 66.4257 15.2317C64.4501 15.2317 63.4493 14.1565 63.4493 12.0318V8.76784C63.4493 8.04465 62.9135 7.53266 62.1452 7.53266C61.3769 7.53266 60.841 8.03825 60.841 8.76784V12.2942C60.841 15.0077 62.4809 16.9533 65.128 17.3885H65.115Z" fill="#408CFF"/>
<path d="M75.4643 22.7196C76.2455 22.7196 76.7491 22.2588 76.7491 21.5484V12.2942C76.7491 10.6238 77.7111 9.58702 79.2541 9.58702C80.7971 9.58702 81.7591 10.6238 81.7591 12.2942V21.5484C81.7591 22.2716 82.2369 22.7196 83.0052 22.7196C83.7734 22.7196 84.2512 22.2716 84.2512 21.5484V12.2942C84.2512 10.6238 85.2132 9.58702 86.7562 9.58702C88.2992 9.58702 89.2612 10.6238 89.2612 12.2942V21.5484C89.2612 22.2588 89.7648 22.7196 90.546 22.7196C91.3272 22.7196 91.8308 22.2588 91.8308 21.5484V12.0894C91.8308 9.28623 89.81 7.32787 86.9241 7.32787C85.3165 7.32787 83.7993 8.04465 83.0116 9.17103C82.224 8.04465 80.7068 7.32787 79.0992 7.32787C76.2068 7.32787 74.1925 9.28623 74.1925 12.0894V21.5484C74.1925 22.2588 74.696 22.7196 75.4772 22.7196H75.4643Z" fill="#408CFF"/>
<path d="M99.6299 7.73746H97.7124C97.0926 7.73746 96.5825 8.24305 96.5825 8.85744C96.5825 9.47183 97.0926 9.97742 97.7124 9.97742H99.6299C100.237 9.97742 100.727 10.4638 100.727 11.0654V25.1835C100.727 25.7851 100.237 26.2715 99.6299 26.2715H41.5629C40.956 26.2715 40.4653 25.7851 40.4653 25.1835V11.0654C40.4653 10.4638 40.956 9.97742 41.5629 9.97742H46.5341C46.5987 9.99022 46.6632 9.99662 46.7343 9.99662H55.1531C55.3081 9.99662 55.4114 10.035 55.4501 10.099C55.4824 10.1694 55.4501 10.291 55.3468 10.4254L46.0112 18.2973L45.9531 18.3613C45.2881 19.1677 44.9782 19.8204 44.9782 20.4156C44.9782 21.6892 46.0241 22.5084 47.651 22.5084H57.5807C58.2779 22.5084 58.7815 22.0348 58.7815 21.3756C58.7815 20.7164 58.2779 20.2428 57.5807 20.2428H47.9868C47.7931 20.2428 47.7414 20.1724 47.7221 20.1404C47.6769 20.0508 47.7221 19.9036 47.8383 19.7436L57.2901 11.7374L57.3482 11.6798C58.0003 10.9118 58.3102 10.2782 58.3102 9.68302C58.3102 8.49905 57.2837 7.73106 55.7019 7.73106H41.5758C39.7228 7.73106 38.2185 9.22223 38.2185 11.0526V25.1707C38.2185 27.0075 39.7228 28.4987 41.5758 28.4987H99.6428C101.496 28.4987 103 27.0075 103 25.1707V11.0526C103 9.21583 101.496 7.72466 99.6428 7.72466L99.6299 7.73746Z" fill="#408CFF"/>
<path d="M94.1808 9.97742C94.8048 9.97742 95.3107 9.47599 95.3107 8.85744C95.3107 8.23889 94.8048 7.73746 94.1808 7.73746C93.5568 7.73746 93.051 8.23889 93.051 8.85744C93.051 9.47599 93.5568 9.97742 94.1808 9.97742Z" fill="#408CFF"/>
<path d="M11.5738 42.5848C11.5738 47.6919 15.7639 51.8455 20.9159 51.8455C26.068 51.8455 30.2581 47.6919 30.2581 42.5848C30.2581 37.4777 26.068 33.3242 20.9159 33.3242C15.7639 33.3242 11.5738 37.4777 11.5738 42.5848ZM13.8335 42.5848C13.8335 38.7129 17.0099 35.5642 20.9159 35.5642C24.8219 35.5642 27.9984 38.7129 27.9984 42.5848C27.9984 46.4568 24.8219 49.6055 20.9159 49.6055C17.0099 49.6055 13.8335 46.4568 13.8335 42.5848Z" fill="#333333"/>
<path d="M58.4587 45.8488C58.4587 49.1575 61.1768 51.8519 64.5082 51.8519C67.8396 51.8519 70.5641 49.1575 70.5641 45.8552C70.5641 42.5528 67.846 39.8585 64.5146 39.8585C61.1832 39.8585 58.4652 42.5528 58.4652 45.8552L58.4587 45.8488ZM60.7184 45.8488C60.7184 43.7752 62.4228 42.092 64.5082 42.092C66.5935 42.092 68.298 43.7816 68.298 45.8488C68.298 47.9159 66.5935 49.6055 64.5017 49.6055C62.4099 49.6055 60.7119 47.9159 60.7119 45.8424L60.7184 45.8488Z" fill="#333333"/>
<path d="M80.9779 45.8488C80.9779 49.1575 83.696 51.8519 87.0274 51.8519C90.3588 51.8519 93.0768 49.1575 93.0768 45.8552C93.0768 42.5528 90.3588 39.8585 87.0274 39.8585C83.696 39.8585 80.9715 42.5528 80.9715 45.8552L80.9779 45.8488ZM83.2376 45.8488C83.2376 43.7752 84.942 42.092 87.0338 42.092C89.1256 42.092 90.8236 43.7816 90.8236 45.8488C90.8236 47.9159 89.1192 49.6055 87.0338 49.6055C84.9485 49.6055 83.244 47.9159 83.244 45.8424L83.2376 45.8488Z" fill="#333333"/>
<path d="M20.9159 44.684C22.0855 44.684 23.0336 43.7442 23.0336 42.5848C23.0336 41.4255 22.0855 40.4857 20.9159 40.4857C19.7464 40.4857 18.7983 41.4255 18.7983 42.5848C18.7983 43.7442 19.7464 44.684 20.9159 44.684Z" fill="#333333"/>
<path d="M72.559 44.6136H78.9765C79.5963 44.6136 80.1063 45.1192 80.1063 45.7336C80.1063 46.3479 79.5963 46.8535 78.9765 46.8535H72.559C71.9392 46.8535 71.4292 46.3479 71.4292 45.7336C71.4292 45.1192 71.9392 44.6136 72.559 44.6136Z" fill="#333333"/>
<path d="M40.4266 30.4954H101.857C102.477 30.4954 102.987 31.001 102.987 31.6154V40.3385C102.987 40.9529 102.477 41.4584 101.857 41.4584H101.154L101.083 45.7528C101.07 46.3607 100.566 46.8535 99.9527 46.8535H95.0847C94.4649 46.8535 93.9549 46.348 93.9549 45.7336C93.9549 45.1192 94.4649 44.6136 95.0847 44.6136H98.8422L98.9132 40.3193C98.9261 39.7113 99.4297 39.2185 100.043 39.2185H100.727V32.7354H41.5564V39.4937H46.9602C47.2637 39.4937 47.5477 39.6089 47.7608 39.8201L52.6029 44.62H56.4637C57.0835 44.62 57.5936 45.1256 57.5936 45.74C57.5936 46.3544 57.0835 46.8599 56.4637 46.8599H52.1381C51.8347 46.8599 51.5506 46.7447 51.3375 46.5335L46.4954 41.7336H40.4266C39.8068 41.7336 39.2967 41.228 39.2967 40.6137V31.6154C39.2967 31.001 39.8068 30.4954 40.4266 30.4954Z" fill="#333333"/>
<path d="M9.12047 22.8476H13.0717V9.48463C13.0717 4.25592 17.365 0 22.6397 0H35.7975C36.4173 0 36.9273 0.505591 36.9273 1.11998V42.5848C36.9273 43.1992 36.4173 43.7048 35.7975 43.7048H32.5823C31.9625 43.7048 31.4524 43.1992 31.4524 42.5848C31.4524 41.9704 31.9625 41.4648 32.5823 41.4648H34.6676V2.23996H22.6397C18.6111 2.23996 15.3313 5.4911 15.3313 9.48463V23.9676C15.3313 24.582 14.8213 25.0875 14.2015 25.0875H9.12047C6.98993 25.0875 5.25967 26.8027 5.25967 28.9147V41.4648H9.2496C9.86939 41.4648 10.3794 41.9704 10.3794 42.5848C10.3794 43.1992 9.86939 43.7048 9.2496 43.7048H4.12983C3.51004 43.7048 3 43.1992 3 42.5848V28.9147C3 25.5675 5.74388 22.8476 9.12047 22.8476Z" fill="#333333"/>
<path d="M29.7674 9.97742H19.9281C19.3083 9.97742 18.7983 9.47183 18.7983 8.85744C18.7983 8.24305 19.3083 7.73746 19.9281 7.73746H29.7674C30.3872 7.73746 30.8972 8.24305 30.8972 8.85744C30.8972 9.47183 30.3872 9.97742 29.7674 9.97742Z" fill="#333333"/>
<path d="M26.8815 29.1451C26.2617 29.1451 25.7516 28.6395 25.7516 28.0251C25.7516 27.4107 26.2617 26.9051 26.8815 26.9051H29.7674C30.3872 26.9051 30.8972 27.4107 30.8972 28.0251C30.8972 28.6395 30.3872 29.1451 29.7674 29.1451H26.8815Z" fill="#333333"/>
</svg>
