<svg width="81" height="42" viewBox="0 0 81 42" fill="none" xmlns="http://www.w3.org/2000/svg">
<path d="M50.3132 14.0847V17.4024C50.3132 17.9882 50.7472 18.4029 51.3695 18.4029C51.9919 18.4029 52.4259 17.9933 52.4259 17.4024V14.0847C54.57 13.727 55.8983 12.1511 55.8983 9.95828V7.10195C55.8983 6.51617 55.4643 6.10146 54.8419 6.10146C54.2196 6.10146 53.7856 6.51098 53.7856 7.10195V9.74574C53.7856 11.4668 52.975 12.3377 51.3748 12.3377C49.7745 12.3377 48.964 11.4668 48.964 9.74574V7.10195C48.964 6.51617 48.5299 6.10146 47.9076 6.10146C47.2853 6.10146 46.8512 6.51098 46.8512 7.10195V9.95828C46.8512 12.1563 48.1795 13.7322 50.3236 14.0847H50.3132Z" fill="#408CFF"/>
<path d="M58.6961 18.4029C59.3289 18.4029 59.7368 18.0296 59.7368 17.4542V9.95828C59.7368 8.60528 60.516 7.76549 61.7658 7.76549C63.0157 7.76549 63.7949 8.60528 63.7949 9.95828V17.4542C63.7949 18.04 64.1819 18.4029 64.8042 18.4029C65.4265 18.4029 65.8135 18.04 65.8135 17.4542V9.95828C65.8135 8.60528 66.5927 7.76549 67.8425 7.76549C69.0924 7.76549 69.8716 8.60528 69.8716 9.95828V17.4542C69.8716 18.0296 70.2795 18.4029 70.9123 18.4029C71.545 18.4029 71.9529 18.0296 71.9529 17.4542V9.7924C71.9529 7.52185 70.3161 5.93557 67.9785 5.93557C66.6764 5.93557 65.4474 6.51617 64.8094 7.42854C64.1714 6.51617 62.9425 5.93557 61.6403 5.93557C59.2975 5.93557 57.6659 7.52185 57.6659 9.7924V17.4542C57.6659 18.0296 58.0738 18.4029 58.7066 18.4029H58.6961Z" fill="#408CFF"/>
<path d="M78.2702 6.26734H76.717C76.215 6.26734 75.8019 6.67687 75.8019 7.17453C75.8019 7.67218 76.215 8.08171 76.717 8.08171H78.2702C78.7618 8.08171 79.1592 8.47569 79.1592 8.96297V20.3987C79.1592 20.886 78.7618 21.2799 78.2702 21.2799H31.2359C30.7443 21.2799 30.3469 20.886 30.3469 20.3987V8.96297C30.3469 8.47569 30.7443 8.08171 31.2359 8.08171H35.2626C35.3149 8.09208 35.3672 8.09726 35.4248 8.09726H42.244C42.3696 8.09726 42.4532 8.12836 42.4846 8.1802C42.5107 8.23723 42.4846 8.33572 42.4009 8.44458L34.839 14.8208L34.792 14.8726C34.2533 15.5258 34.0023 16.0546 34.0023 16.5367C34.0023 17.5683 34.8495 18.2318 36.1673 18.2318H44.2103C44.7751 18.2318 45.183 17.8482 45.183 17.3142C45.183 16.7803 44.7751 16.3967 44.2103 16.3967H36.4393C36.2824 16.3967 36.2406 16.3397 36.2249 16.3137C36.1883 16.2412 36.2249 16.1219 36.319 15.9923L43.975 9.50728L44.0221 9.46063C44.5503 8.83856 44.8013 8.32535 44.8013 7.84325C44.8013 6.88423 43.9698 6.26216 42.6886 6.26216H31.2464C29.7455 6.26216 28.527 7.47001 28.527 8.95261V20.3883C28.527 21.8761 29.7455 23.0839 31.2464 23.0839H78.2807C79.7815 23.0839 81 21.8761 81 20.3883V8.95261C81 7.46482 79.7815 6.25697 78.2807 6.25697L78.2702 6.26734Z" fill="#408CFF"/>
<path d="M73.8565 8.08171C74.3619 8.08171 74.7716 7.67555 74.7716 7.17453C74.7716 6.6735 74.3619 6.26734 73.8565 6.26734C73.351 6.26734 72.9413 6.6735 72.9413 7.17453C72.9413 7.67555 73.351 8.08171 73.8565 8.08171Z" fill="#408CFF"/>
<path d="M6.9448 34.4937C6.9448 38.6305 10.3388 41.9948 14.5119 41.9948C18.6851 41.9948 22.079 38.6305 22.079 34.4937C22.079 30.357 18.6851 26.9926 14.5119 26.9926C10.3388 26.9926 6.9448 30.357 6.9448 34.4937ZM8.77513 34.4937C8.77513 31.3574 11.3481 28.807 14.5119 28.807C17.6758 28.807 20.2487 31.3574 20.2487 34.4937C20.2487 37.63 17.6758 40.1805 14.5119 40.1805C11.3481 40.1805 8.77513 37.63 8.77513 34.4937Z" fill="#333333"/>
<path d="M44.9216 37.1375C44.9216 39.8176 47.1232 42 49.8216 42C52.52 42 54.7269 39.8176 54.7269 37.1427C54.7269 34.4678 52.5253 32.2854 49.8268 32.2854C47.1284 32.2854 44.9268 34.4678 44.9268 37.1427L44.9216 37.1375ZM46.7519 37.1375C46.7519 35.4579 48.1325 34.0945 49.8216 34.0945C51.5107 34.0945 52.8913 35.4631 52.8913 37.1375C52.8913 38.8119 51.5107 40.1805 49.8164 40.1805C48.122 40.1805 46.7467 38.8119 46.7467 37.1323L46.7519 37.1375Z" fill="#333333"/>
<path d="M63.1621 37.1375C63.1621 39.8176 65.3637 42 68.0622 42C70.7606 42 72.9622 39.8176 72.9622 37.1427C72.9622 34.4678 70.7606 32.2854 68.0622 32.2854C65.3637 32.2854 63.1569 34.4678 63.1569 37.1427L63.1621 37.1375ZM64.9924 37.1375C64.9924 35.4579 66.373 34.0945 68.0674 34.0945C69.7618 34.0945 71.1371 35.4631 71.1371 37.1375C71.1371 38.8119 69.7565 40.1805 68.0674 40.1805C66.3783 40.1805 64.9977 38.8119 64.9977 37.1323L64.9924 37.1375Z" fill="#333333"/>
<path d="M14.5119 36.194C15.4592 36.194 16.2272 35.4328 16.2272 34.4937C16.2272 33.5546 15.4592 32.7934 14.5119 32.7934C13.5646 32.7934 12.7966 33.5546 12.7966 34.4937C12.7966 35.4328 13.5646 36.194 14.5119 36.194Z" fill="#333333"/>
<path d="M56.3428 36.137H61.541C62.043 36.137 62.4561 36.5465 62.4561 37.0442C62.4561 37.5418 62.043 37.9514 61.541 37.9514H56.3428C55.8408 37.9514 55.4277 37.5418 55.4277 37.0442C55.4277 36.5465 55.8408 36.137 56.3428 36.137Z" fill="#333333"/>
<path d="M30.3155 24.7013H80.0744C80.5764 24.7013 80.9895 25.1108 80.9895 25.6085V32.6742C80.9895 33.1718 80.5764 33.5813 80.0744 33.5813H79.5044L79.4468 37.0597C79.4364 37.5522 79.0285 37.9514 78.5317 37.9514H74.5886C74.0866 37.9514 73.6734 37.5418 73.6734 37.0442C73.6734 36.5465 74.0866 36.137 74.5886 36.137H77.6322L77.6897 32.6586C77.7002 32.1661 78.1081 31.767 78.6049 31.767H79.1592V26.5157H31.2307V31.9899H35.6078C35.8536 31.9899 36.0837 32.0832 36.2562 32.2543L40.1784 36.1422H43.3056C43.8077 36.1422 44.2208 36.5517 44.2208 37.0494C44.2208 37.547 43.8077 37.9566 43.3056 37.9566H39.8019C39.5561 37.9566 39.326 37.8632 39.1534 37.6922L35.2313 33.8042H30.3155C29.8135 33.8042 29.4003 33.3947 29.4003 32.8971V25.6085C29.4003 25.1108 29.8135 24.7013 30.3155 24.7013Z" fill="#333333"/>
<path d="M4.95758 18.5065H8.15805V7.68255C8.15805 3.4473 11.6357 0 15.9082 0H26.5659C27.068 0 27.4811 0.409529 27.4811 0.907183V34.4937C27.4811 34.9914 27.068 35.4009 26.5659 35.4009H23.9617C23.4596 35.4009 23.0465 34.9914 23.0465 34.4937C23.0465 33.9961 23.4596 33.5865 23.9617 33.5865H25.6508V1.81437H15.9082C12.645 1.81437 9.98838 4.44779 9.98838 7.68255V19.4137C9.98838 19.9114 9.57525 20.3209 9.07321 20.3209H4.95758C3.23184 20.3209 1.83033 21.7102 1.83033 23.4209V33.5865H5.06217C5.56421 33.5865 5.97734 33.9961 5.97734 34.4937C5.97734 34.9914 5.56421 35.4009 5.06217 35.4009H0.915166C0.413132 35.4009 0 34.9914 0 34.4937V23.4209C0 20.7097 2.22254 18.5065 4.95758 18.5065Z" fill="#333333"/>
<path d="M21.6816 8.08171H13.7118C13.2098 8.08171 12.7966 7.67218 12.7966 7.17453C12.7966 6.67687 13.2098 6.26734 13.7118 6.26734H21.6816C22.1836 6.26734 22.5967 6.67687 22.5967 7.17453C22.5967 7.67218 22.1836 8.08171 21.6816 8.08171Z" fill="#333333"/>
<path d="M19.344 23.6075C18.842 23.6075 18.4288 23.198 18.4288 22.7003C18.4288 22.2027 18.842 21.7931 19.344 21.7931H21.6816C22.1836 21.7931 22.5967 22.2027 22.5967 22.7003C22.5967 23.198 22.1836 23.6075 21.6816 23.6075H19.344Z" fill="#333333"/>
</svg>
